<svg xmlns="http://www.w3.org/2000/svg" width="92.8" height="51.63" viewBox="0 0 92.8 51.63">
  <g id="Page-1" transform="translate(-0.792 -0.13)">
    <g id="Group" transform="translate(-170 -215)">
      <g id="Group-2-Copy" transform="translate(169 211)">
        <path id="Besufkad" d="M7.581,10.723a3.06,3.06,0,0,1,1.777,1.207,3.777,3.777,0,0,1,.637,2.233,3.678,3.678,0,0,1-1.093,2.8A4.173,4.173,0,0,1,5.909,18H1.862V4.13H5.681A4.217,4.217,0,0,1,8.6,5.089,3.349,3.349,0,0,1,9.671,7.721,3.327,3.327,0,0,1,9.12,9.659,2.636,2.636,0,0,1,7.581,10.723ZM3.325,5.479v4.674H5.681a2.552,2.552,0,0,0,1.824-.627,2.237,2.237,0,0,0,.665-1.71,2.237,2.237,0,0,0-.665-1.71,2.552,2.552,0,0,0-1.824-.627ZM5.776,16.651a2.843,2.843,0,0,0,2-.674,2.4,2.4,0,0,0,.732-1.852A2.589,2.589,0,0,0,7.771,12.2a2.716,2.716,0,0,0-1.995-.732H3.325v5.187Zm15.257-3.515h-6.4v1.121a2.8,2.8,0,0,0,.637,1.966,2.364,2.364,0,0,0,1.833.694,2.9,2.9,0,0,0,1.615-.4,1.8,1.8,0,0,0,.779-1.159h1.52A2.976,2.976,0,0,1,19.77,17.43a4.451,4.451,0,0,1-2.67.76,3.681,3.681,0,0,1-3.933-3.933V11.293A3.681,3.681,0,0,1,17.1,7.36a3.681,3.681,0,0,1,3.933,3.933Zm-6.4-1.178h4.94v-.665a2.8,2.8,0,0,0-.636-1.967A2.364,2.364,0,0,0,17.1,8.633a2.364,2.364,0,0,0-1.833.693,2.8,2.8,0,0,0-.637,1.967ZM28.044,18.19a3.9,3.9,0,0,1-2.489-.75,2.9,2.9,0,0,1-1.1-2h1.5a1.6,1.6,0,0,0,.684,1.026,2.423,2.423,0,0,0,1.406.38h.931a2.335,2.335,0,0,0,1.539-.446,1.631,1.631,0,0,0,.066-2.347,2.425,2.425,0,0,0-1.32-.57l-1.577-.247a3.987,3.987,0,0,1-2.233-.941,2.644,2.644,0,0,1-.732-1.985,2.709,2.709,0,0,1,.9-2.166,3.856,3.856,0,0,1,2.594-.779h.741a3.787,3.787,0,0,1,2.385.713,2.824,2.824,0,0,1,1.092,1.91h-1.5a1.394,1.394,0,0,0-.636-.931,2.4,2.4,0,0,0-1.34-.342h-.741a2.289,2.289,0,0,0-1.492.418,1.446,1.446,0,0,0-.5,1.178,1.3,1.3,0,0,0,.409,1.026,2.493,2.493,0,0,0,1.282.494l1.558.247a4.23,4.23,0,0,1,2.318.979,2.7,2.7,0,0,1,.76,2.043,2.9,2.9,0,0,1-.922,2.271,3.841,3.841,0,0,1-2.65.826Zm11.837,0a3.787,3.787,0,0,1-2.831-1.064,3.943,3.943,0,0,1-1.045-2.888V7.55h1.5v6.688a2.772,2.772,0,0,0,.627,1.929,2.236,2.236,0,0,0,1.748.694,2.3,2.3,0,0,0,1.767-.694,2.72,2.72,0,0,0,.646-1.929V7.55h1.5v6.688a3.9,3.9,0,0,1-1.064,2.888A3.851,3.851,0,0,1,39.881,18.19ZM49.875,18V9.07H46.8V7.7h3.078V6.7A2.474,2.474,0,0,1,50.6,4.824a2.707,2.707,0,0,1,1.957-.694h3.154V5.5H52.554a1.156,1.156,0,0,0-.855.3,1.183,1.183,0,0,0-.3.874V7.7h4.313V9.07H51.4V18ZM60.4,18H58.9V4.13h1.5v7.809h2.014l3.1-4.389h1.729l-3.515,4.978L67.317,18H65.55l-3.135-4.75H60.4ZM74.157,7.379a4.063,4.063,0,0,1,2.8.921A3.221,3.221,0,0,1,78,10.837V18H76.513V16.176a2.142,2.142,0,0,1-1.083,1.463,4.224,4.224,0,0,1-2.223.551,3.672,3.672,0,0,1-2.546-.836,2.864,2.864,0,0,1-.931-2.242,2.948,2.948,0,0,1,.921-2.3,3.607,3.607,0,0,1,2.518-.836h3.325v-1.1a2.058,2.058,0,0,0-.618-1.606,2.5,2.5,0,0,0-1.739-.561,2.893,2.893,0,0,0-1.644.428,1.6,1.6,0,0,0-.731,1.168h-1.52A3.11,3.11,0,0,1,71.5,8.177,4.309,4.309,0,0,1,74.157,7.379Zm-.627,9.6a3.517,3.517,0,0,0,2.138-.608,1.908,1.908,0,0,0,.826-1.615v-1.6H73.188a1.981,1.981,0,0,0-1.435.5,1.8,1.8,0,0,0-.522,1.359,1.779,1.779,0,0,0,.618,1.434A2.52,2.52,0,0,0,73.53,16.974ZM87.856,4.13h1.5V18h-1.5V16.157a2.308,2.308,0,0,1-.96,1.492,3.236,3.236,0,0,1-1.91.542,3.176,3.176,0,0,1-2.5-1.036,4.092,4.092,0,0,1-.922-2.821v-3.1A4.128,4.128,0,0,1,82.489,8.4a3.162,3.162,0,0,1,2.5-1.045,3.206,3.206,0,0,1,1.9.551,2.324,2.324,0,0,1,.969,1.482h.019l-.019-2.28ZM85.462,16.879a2.266,2.266,0,0,0,1.757-.694,2.746,2.746,0,0,0,.637-1.928V11.293a2.746,2.746,0,0,0-.637-1.929,2.6,2.6,0,0,0-3.524-.01,2.765,2.765,0,0,0-.627,1.938v2.964a2.765,2.765,0,0,0,.627,1.938A2.276,2.276,0,0,0,85.462,16.879Z" fill="#fff" fill-rule="evenodd"/>
        <path id="Menji" d="M1.792,50V26.64H6.528L8.8,34.1q.576,1.92.864,3.36a32.107,32.107,0,0,1,.832-3.392l2.176-7.424h4.736V50H13.664V42.736q0-2.944.272-6.688t.656-7.136l-3.136,11.04H7.808L4.576,28.912q.416,3.264.688,6.992t.272,6.832V50Zm34.3-7.84H25.344v1.248q0,3.744,3.52,3.744a4.263,4.263,0,0,0,2.144-.464,2.1,2.1,0,0,0,1.024-1.36H36a5.611,5.611,0,0,1-2.4,3.632,8.134,8.134,0,0,1-4.768,1.36,8.264,8.264,0,0,1-3.888-.864A6.18,6.18,0,0,1,22.4,47.04a7.136,7.136,0,0,1-.9-3.632V38.992a7.136,7.136,0,0,1,.9-3.632,6.157,6.157,0,0,1,2.56-2.416,8.288,8.288,0,0,1,3.872-.864,8.1,8.1,0,0,1,3.84.864A6.2,6.2,0,0,1,35.2,35.36a7.136,7.136,0,0,1,.9,3.632Zm-10.752-2.5,6.912-.064v-.64a4.081,4.081,0,0,0-.864-2.816,3.268,3.268,0,0,0-2.56-.96,3.333,3.333,0,0,0-2.608.976,4.094,4.094,0,0,0-.88,2.832ZM49.472,32.08a5.334,5.334,0,0,1,4.176,1.728,6.685,6.685,0,0,1,1.552,4.64V50h-4V38.864a3.421,3.421,0,0,0-.832-2.448,3.517,3.517,0,0,0-4.672.016,3.625,3.625,0,0,0-.832,2.56V50h-4V32.4h3.9v3.36h.064a4.087,4.087,0,0,1,1.472-2.7A4.906,4.906,0,0,1,49.472,32.08Zm20.416-2.336a2.334,2.334,0,0,1-1.648-.576,2.183,2.183,0,0,1,0-3.056,2.3,2.3,0,0,1,1.648-.592h.64a2.309,2.309,0,0,1,1.632.592,2.144,2.144,0,0,1,0,3.056,2.393,2.393,0,0,1-1.664.576ZM60.224,55.76V52.048h4.7a3.344,3.344,0,0,0,2.448-.864,3.254,3.254,0,0,0,.88-2.432V36.112H61.184V32.4H72.256V48.848a6.7,6.7,0,0,1-1.92,5.056,7.143,7.143,0,0,1-5.184,1.856ZM86.688,29.744a2.334,2.334,0,0,1-1.648-.576,2.183,2.183,0,0,1,0-3.056,2.3,2.3,0,0,1,1.648-.592h.64a2.309,2.309,0,0,1,1.632.592,2.144,2.144,0,0,1,0,3.056,2.393,2.393,0,0,1-1.664.576ZM94.592,50H79.168V46.352h6.144V36.016H79.968V32.4H89.12V46.352h5.472Z" fill="#00da74" fill-rule="evenodd"/>
      </g>
    </g>
  </g>
</svg>
